{"title":"The Ides Of March 2011 DvDScr XviD Ac3 Feel-Free","uid":6868863,"size":935617008,"categoryP":"video","categoryS":"movies","magnet":"?xt=urn:btih:fc61527de69f2910504b1301efc95d36d8c6ef98&amp;dn=The+Ides+Of+March+2011+DvDScr+XviD+Ac3+Feel-Free&amp;tr=udp%3A%2F%2Ftracker.openbittorrent.com%3A80&amp;tr=udp%3A%2F%2Fopen.demonii.com%3A1337&amp;tr=udp%3A%2F%2Ftracker.coppersurfer.tk%3A6969&amp;tr=udp%3A%2F%2Fexodus.desync.com%3A6969","seeders":0,"leechers":0,"uploader":".BONE.","files":9,"time":1323205454,"description":"\nGenre:Drama\nLanguage:English\n &lt;a href=&quot;\nhttp://www.imdb.com/title/tt1124035/&quot; rel=&quot;nofollow&quot; target=&quot;_NEW&quot;&gt;\nhttp://www.imdb.com/title/tt1124035/&lt;/a&gt;\n\nSource:DVDSC-P2P Thanks!\n\nFormat : AVI\nFormat/Info : Audio Video Interleave\nFile size : 891 MiB\nDuration : 1h 41mn\nOverall bit rate : 1 232 Kbps\n\nVideo\nID : 0\nFormat : MPEG-4 Visual\nFormat profile : Advanced Simple@L5\nFormat settings, BVOP : Yes\nFormat settings, QPel : No\nFormat settings, GMC : No warppoints\nFormat settings, Matrix : Default (H.263)\nCodec ID : XVID\nCodec ID/Hint : XviD\nDuration : 1h 41mn\nBit rate : 775 Kbps\nWidth : 640 pixels\nHeight : 272 pixels\nDisplay aspect ratio : 2.35:1\nFrame rate : 23.976 fps\nColor space : YUV\nChroma subsampling : 4:2:0\nBit depth : 8 bits\nScan type : Progressive\nBits/(Pixel*Frame) : 0.186\nStream size : 560 MiB (63%)\nWriting library : XviD 1.2.1 (UTC 2008-12-04)\n\nAudio\nID : 1\nFormat : AC-3\nFormat/Info : Audio Coding 3\nMode extension : CM (complete main)\nCodec ID : 2000\nDuration : 1h 41mn\nBit rate mode : Constant\nBit rate : 448 Kbps\nChannel(s) : 6 channels\nChannel positions : Front: L C R, Side: L R, LFE\nSampling rate : 48.0 KHz\nBit depth : 16 bits\nStream size : 324 MiB (36%)\nAlignment : Aligned on interleaves\nInterleave, duration : 42 ms (1.00 video frame)\nInterleave, preload duration : 512 ms\n\n\nPlot:\nAn idealistic staffer for a newbie presidential candidate gets a crash course on dirty politics during his stint on the campaign trail.\n\nTRAILER:","torrent":{"xt":"urn:btih:fc61527de69f2910504b1301efc95d36d8c6ef98","amp;dn":"The+Ides+Of+March+2011+DvDScr+XviD+Ac3+Feel-Free","amp;tr":["udp%3A%2F%2Ftracker.openbittorrent.com%3A80","udp%3A%2F%2Fopen.demonii.com%3A1337","udp%3A%2F%2Ftracker.coppersurfer.tk%3A6969","udp%3A%2F%2Fexodus.desync.com%3A6969"],"infoHash":"fc61527de69f2910504b1301efc95d36d8c6ef98","infoHashBuffer":{"type":"Buffer","data":[252,97,82,125,230,159,41,16,80,75,19,1,239,201,93,54,216,198,239,152]},"announce":[],"urlList":[]}}